<mxfile host="app.diagrams.net" modified="2021-08-12T16:20:06.627Z" agent="5.0 (Windows NT 10.0; Win64; x64) AppleWebKit/537.36 (KHTML, like Gecko) Chrome/90.0.4430.93 Safari/537.36" etag="eNOirLjLFcH4_4j8L-z6" version="14.9.6" type="github">
  <diagram id="URnHFl_GmNLpw5tfHqrt" name="Page-1">
    <mxGraphModel dx="1422" dy="794" grid="1" gridSize="10" guides="1" tooltips="1" connect="1" arrows="1" fold="1" page="1" pageScale="1" pageWidth="850" pageHeight="1100" math="0" shadow="0">
      <root>
        <mxCell id="0" />
        <mxCell id="1" parent="0" />
        <mxCell id="-KteRIamTAUfvcSRPBfz-4" value="" style="edgeStyle=orthogonalEdgeStyle;rounded=0;orthogonalLoop=1;jettySize=auto;html=1;" parent="1" source="-KteRIamTAUfvcSRPBfz-1" target="-KteRIamTAUfvcSRPBfz-2" edge="1">
          <mxGeometry relative="1" as="geometry">
            <mxPoint x="140" y="104" as="targetPoint" />
          </mxGeometry>
        </mxCell>
        <mxCell id="-KteRIamTAUfvcSRPBfz-1" value="Mainframe MQ" style="outlineConnect=0;dashed=0;verticalLabelPosition=bottom;verticalAlign=top;align=center;html=1;shape=mxgraph.aws3.queue;fillColor=#D9A741;gradientColor=none;" parent="1" vertex="1">
          <mxGeometry x="40" y="80" width="73.5" height="48" as="geometry" />
        </mxCell>
        <mxCell id="-KteRIamTAUfvcSRPBfz-8" value="" style="edgeStyle=orthogonalEdgeStyle;rounded=0;orthogonalLoop=1;jettySize=auto;html=1;" parent="1" source="-KteRIamTAUfvcSRPBfz-2" target="-KteRIamTAUfvcSRPBfz-7" edge="1">
          <mxGeometry relative="1" as="geometry" />
        </mxCell>
        <mxCell id="-KteRIamTAUfvcSRPBfz-2" value="Unix MQ" style="outlineConnect=0;fontColor=#232F3E;gradientColor=none;strokeColor=#232F3E;fillColor=#ffffff;dashed=0;verticalLabelPosition=bottom;verticalAlign=top;align=center;html=1;fontSize=12;fontStyle=0;aspect=fixed;shape=mxgraph.aws4.resourceIcon;resIcon=mxgraph.aws4.queue;" parent="1" vertex="1">
          <mxGeometry x="190" y="72" width="64.85" height="64" as="geometry" />
        </mxCell>
        <mxCell id="-KteRIamTAUfvcSRPBfz-14" value="" style="edgeStyle=orthogonalEdgeStyle;rounded=0;orthogonalLoop=1;jettySize=auto;html=1;" parent="1" source="-KteRIamTAUfvcSRPBfz-7" edge="1">
          <mxGeometry relative="1" as="geometry">
            <mxPoint x="360" y="240" as="targetPoint" />
          </mxGeometry>
        </mxCell>
        <mxCell id="-KteRIamTAUfvcSRPBfz-7" value="WRO NGA App" style="outlineConnect=0;dashed=0;verticalLabelPosition=bottom;verticalAlign=top;align=center;html=1;shape=mxgraph.aws3.worker;fillColor=#D9A741;gradientColor=none;" parent="1" vertex="1">
          <mxGeometry x="330" y="76.25" width="60" height="55.5" as="geometry" />
        </mxCell>
        <mxCell id="-KteRIamTAUfvcSRPBfz-17" value="" style="edgeStyle=orthogonalEdgeStyle;rounded=0;orthogonalLoop=1;jettySize=auto;html=1;" parent="1" source="-KteRIamTAUfvcSRPBfz-13" edge="1">
          <mxGeometry relative="1" as="geometry">
            <mxPoint x="360" y="490" as="targetPoint" />
          </mxGeometry>
        </mxCell>
        <mxCell id="-KteRIamTAUfvcSRPBfz-13" value="MQ_WEB_REJ_TOPIC" style="outlineConnect=0;dashed=0;verticalLabelPosition=bottom;verticalAlign=top;align=center;html=1;shape=mxgraph.aws3.topic_2;fillColor=#D9A741;gradientColor=none;" parent="1" vertex="1">
          <mxGeometry x="313.5" y="240" width="93" height="58.5" as="geometry" />
        </mxCell>
        <mxCell id="-KteRIamTAUfvcSRPBfz-51" value="" style="edgeStyle=orthogonalEdgeStyle;rounded=0;orthogonalLoop=1;jettySize=auto;html=1;" parent="1" source="-KteRIamTAUfvcSRPBfz-18" edge="1">
          <mxGeometry relative="1" as="geometry">
            <mxPoint x="359" y="640" as="targetPoint" />
          </mxGeometry>
        </mxCell>
        <mxCell id="-KteRIamTAUfvcSRPBfz-18" value="MQ_WEB_REJ_Lambda" style="outlineConnect=0;dashed=0;verticalLabelPosition=bottom;verticalAlign=top;align=center;html=1;shape=mxgraph.aws3.lambda_function;fillColor=#F58534;gradientColor=none;" parent="1" vertex="1">
          <mxGeometry x="324.5" y="490" width="69" height="72" as="geometry" />
        </mxCell>
        <mxCell id="-KteRIamTAUfvcSRPBfz-19" value="MQ_WEB_REJ_SQS" style="points=[[0,0,0],[0.25,0,0],[0.5,0,0],[0.75,0,0],[1,0,0],[0,1,0],[0.25,1,0],[0.5,1,0],[0.75,1,0],[1,1,0],[0,0.25,0],[0,0.5,0],[0,0.75,0],[1,0.25,0],[1,0.5,0],[1,0.75,0]];outlineConnect=0;fontColor=#232F3E;gradientColor=#F34482;gradientDirection=north;fillColor=#BC1356;strokeColor=#ffffff;dashed=0;verticalLabelPosition=bottom;verticalAlign=top;align=center;html=1;fontSize=12;fontStyle=0;aspect=fixed;shape=mxgraph.aws4.resourceIcon;resIcon=mxgraph.aws4.sqs;" parent="1" vertex="1">
          <mxGeometry x="321" y="360" width="78" height="78" as="geometry" />
        </mxCell>
        <mxCell id="-KteRIamTAUfvcSRPBfz-33" value="" style="endArrow=none;html=1;" parent="1" edge="1">
          <mxGeometry width="50" height="50" relative="1" as="geometry">
            <mxPoint x="700" y="40" as="sourcePoint" />
            <mxPoint x="700" y="40" as="targetPoint" />
          </mxGeometry>
        </mxCell>
        <mxCell id="-KteRIamTAUfvcSRPBfz-36" value="&lt;ul&gt;&lt;li&gt;&lt;span&gt;Retrieve the message from the queue&lt;/span&gt;&lt;/li&gt;&lt;li style=&quot;text-align: left&quot;&gt;&lt;span&gt;Post web reject to SNS Topic (MQ_WEB_REJ_TOPIC)&lt;/span&gt;&lt;/li&gt;&lt;/ul&gt;" style="shape=document;whiteSpace=wrap;html=1;boundedLbl=1;fontStyle=1;fillColor=#FFFF66;" parent="1" vertex="1">
          <mxGeometry x="450" y="80" width="260" height="80" as="geometry" />
        </mxCell>
        <mxCell id="-KteRIamTAUfvcSRPBfz-40" value="Message Store" style="outlineConnect=0;dashed=0;verticalLabelPosition=bottom;verticalAlign=top;align=center;html=1;shape=mxgraph.aws3.dynamo_db;fillColor=#2E73B8;gradientColor=none;" parent="1" vertex="1">
          <mxGeometry x="490" y="638.5" width="72" height="81" as="geometry" />
        </mxCell>
        <mxCell id="-KteRIamTAUfvcSRPBfz-41" value="Image Store" style="pointerEvents=1;shadow=0;dashed=0;html=1;strokeColor=none;fillColor=#DF8C42;labelPosition=center;verticalLabelPosition=bottom;verticalAlign=top;align=center;outlineConnect=0;shape=mxgraph.veeam2.aws_s3;" parent="1" vertex="1">
          <mxGeometry x="160" y="644.5" width="70" height="69" as="geometry" />
        </mxCell>
        <mxCell id="-KteRIamTAUfvcSRPBfz-47" value="" style="edgeStyle=orthogonalEdgeStyle;rounded=0;orthogonalLoop=1;jettySize=auto;html=1;entryX=0;entryY=0.5;entryDx=0;entryDy=0;entryPerimeter=0;" parent="1" target="-KteRIamTAUfvcSRPBfz-40" edge="1">
          <mxGeometry relative="1" as="geometry">
            <mxPoint x="398" y="679" as="sourcePoint" />
            <mxPoint x="480" y="840" as="targetPoint" />
          </mxGeometry>
        </mxCell>
        <mxCell id="-KteRIamTAUfvcSRPBfz-49" value="" style="edgeStyle=orthogonalEdgeStyle;rounded=0;orthogonalLoop=1;jettySize=auto;html=1;" parent="1" target="-KteRIamTAUfvcSRPBfz-41" edge="1">
          <mxGeometry relative="1" as="geometry">
            <mxPoint x="320" y="679" as="sourcePoint" />
          </mxGeometry>
        </mxCell>
        <mxCell id="-KteRIamTAUfvcSRPBfz-50" value="&lt;ul&gt;&lt;li&gt;Calls WIH Service to store message in dynamo (WorkItemTable)&lt;/li&gt;&lt;li&gt;Calls WIH Service to store image in S3&lt;/li&gt;&lt;li&gt;Processing Chaining&lt;/li&gt;&lt;li&gt;Set envelope ready to route&lt;/li&gt;&lt;/ul&gt;" style="shape=document;whiteSpace=wrap;html=1;boundedLbl=1;align=left;fillColor=#FFFF66;fontStyle=1" parent="1" vertex="1">
          <mxGeometry x="450" y="476" width="290" height="100" as="geometry" />
        </mxCell>
        <mxCell id="-KteRIamTAUfvcSRPBfz-59" value="" style="edgeStyle=orthogonalEdgeStyle;rounded=0;orthogonalLoop=1;jettySize=auto;html=1;" parent="1" source="-KteRIamTAUfvcSRPBfz-53" target="-KteRIamTAUfvcSRPBfz-55" edge="1">
          <mxGeometry relative="1" as="geometry" />
        </mxCell>
        <mxCell id="-KteRIamTAUfvcSRPBfz-63" value="" style="edgeStyle=orthogonalEdgeStyle;rounded=0;orthogonalLoop=1;jettySize=auto;html=1;" parent="1" source="-KteRIamTAUfvcSRPBfz-53" target="-KteRIamTAUfvcSRPBfz-62" edge="1">
          <mxGeometry relative="1" as="geometry" />
        </mxCell>
        <mxCell id="-KteRIamTAUfvcSRPBfz-53" value="WRI" style="outlineConnect=0;fontColor=#232F3E;gradientColor=none;fillColor=#277116;strokeColor=none;dashed=0;verticalLabelPosition=bottom;verticalAlign=top;align=center;html=1;fontSize=12;fontStyle=0;aspect=fixed;pointerEvents=1;shape=mxgraph.aws4.lambda_function;" parent="1" vertex="1">
          <mxGeometry x="321" y="880" width="78" height="78" as="geometry" />
        </mxCell>
        <mxCell id="-KteRIamTAUfvcSRPBfz-55" value="FAS Appian" style="html=1;verticalLabelPosition=bottom;align=center;labelBackgroundColor=#ffffff;verticalAlign=top;strokeWidth=2;strokeColor=#0080F0;shadow=0;dashed=0;shape=mxgraph.ios7.icons.settings;" parent="1" vertex="1">
          <mxGeometry x="180" y="889" width="60" height="60" as="geometry" />
        </mxCell>
        <mxCell id="-KteRIamTAUfvcSRPBfz-56" value="RIG Appian" style="pointerEvents=1;shadow=0;dashed=0;html=1;strokeColor=none;fillColor=#505050;labelPosition=center;verticalLabelPosition=bottom;verticalAlign=top;outlineConnect=0;align=center;shape=mxgraph.office.concepts.settings_office_365;" parent="1" vertex="1">
          <mxGeometry x="610" y="890" width="60" height="59" as="geometry" />
        </mxCell>
        <mxCell id="-KteRIamTAUfvcSRPBfz-57" value="AWD" style="shape=image;html=1;verticalAlign=top;verticalLabelPosition=bottom;labelBackgroundColor=#ffffff;imageAspect=0;aspect=fixed;image=https://cdn0.iconfinder.com/data/icons/form-widget/128/form-widget-Process-Workflow-128.png" parent="1" vertex="1">
          <mxGeometry x="455" y="1010" width="70" height="70" as="geometry" />
        </mxCell>
        <mxCell id="-KteRIamTAUfvcSRPBfz-61" value="WIH Service" style="outlineConnect=0;fontColor=#232F3E;gradientColor=none;strokeColor=#ffffff;fillColor=#232F3E;dashed=0;verticalLabelPosition=middle;verticalAlign=bottom;align=center;html=1;whiteSpace=wrap;fontSize=10;fontStyle=1;spacing=3;shape=mxgraph.aws4.productIcon;prIcon=mxgraph.aws4.ecs;" parent="1" vertex="1">
          <mxGeometry x="320" y="638.5" width="80" height="100" as="geometry" />
        </mxCell>
        <mxCell id="-KteRIamTAUfvcSRPBfz-65" value="" style="edgeStyle=orthogonalEdgeStyle;rounded=0;orthogonalLoop=1;jettySize=auto;html=1;" parent="1" source="-KteRIamTAUfvcSRPBfz-62" edge="1">
          <mxGeometry relative="1" as="geometry">
            <mxPoint x="610" y="919" as="targetPoint" />
          </mxGeometry>
        </mxCell>
        <mxCell id="-KteRIamTAUfvcSRPBfz-67" value="" style="edgeStyle=orthogonalEdgeStyle;rounded=0;orthogonalLoop=1;jettySize=auto;html=1;" parent="1" source="-KteRIamTAUfvcSRPBfz-62" edge="1">
          <mxGeometry relative="1" as="geometry">
            <mxPoint x="490" y="1010" as="targetPoint" />
          </mxGeometry>
        </mxCell>
        <mxCell id="-KteRIamTAUfvcSRPBfz-62" value="Decider" style="rhombus;whiteSpace=wrap;html=1;" parent="1" vertex="1">
          <mxGeometry x="450" y="879" width="80" height="80" as="geometry" />
        </mxCell>
        <mxCell id="-KteRIamTAUfvcSRPBfz-68" value="1" style="ellipse;whiteSpace=wrap;html=1;aspect=fixed;fillColor=#0000FF;fontColor=#FFFFFF;" parent="1" vertex="1">
          <mxGeometry x="50" y="160" width="40" height="40" as="geometry" />
        </mxCell>
        <mxCell id="-KteRIamTAUfvcSRPBfz-70" value="2" style="ellipse;whiteSpace=wrap;html=1;aspect=fixed;fontColor=#FFFFFF;fillColor=#0000FF;" parent="1" vertex="1">
          <mxGeometry x="200" y="160" width="40" height="40" as="geometry" />
        </mxCell>
        <mxCell id="-KteRIamTAUfvcSRPBfz-71" value="3" style="ellipse;whiteSpace=wrap;html=1;aspect=fixed;fillColor=#33FF33;fontStyle=1" parent="1" vertex="1">
          <mxGeometry x="399" y="91.75" width="40" height="40" as="geometry" />
        </mxCell>
        <mxCell id="-KteRIamTAUfvcSRPBfz-72" value="4" style="ellipse;whiteSpace=wrap;html=1;aspect=fixed;fontStyle=1;fillColor=#33FF33;" parent="1" vertex="1">
          <mxGeometry x="240" y="240" width="40" height="40" as="geometry" />
        </mxCell>
        <mxCell id="-KteRIamTAUfvcSRPBfz-73" value="5" style="ellipse;whiteSpace=wrap;html=1;aspect=fixed;fillColor=#33FF33;fontStyle=1" parent="1" vertex="1">
          <mxGeometry x="240" y="360" width="40" height="40" as="geometry" />
        </mxCell>
        <mxCell id="-KteRIamTAUfvcSRPBfz-74" value="6" style="ellipse;whiteSpace=wrap;html=1;aspect=fixed;fillColor=#33FF33;fontStyle=1" parent="1" vertex="1">
          <mxGeometry x="240" y="490" width="40" height="40" as="geometry" />
        </mxCell>
        <mxCell id="-KteRIamTAUfvcSRPBfz-75" value="7" style="ellipse;whiteSpace=wrap;html=1;aspect=fixed;fontColor=#FFFFFF;fillColor=#0000FF;" parent="1" vertex="1">
          <mxGeometry x="393.5" y="598.5" width="40" height="40" as="geometry" />
        </mxCell>
        <mxCell id="-KteRIamTAUfvcSRPBfz-76" value="8" style="ellipse;whiteSpace=wrap;html=1;aspect=fixed;fillColor=#0000FF;fontColor=#FFFFFF;" parent="1" vertex="1">
          <mxGeometry x="562" y="604.5" width="40" height="40" as="geometry" />
        </mxCell>
        <mxCell id="-KteRIamTAUfvcSRPBfz-77" value="9" style="ellipse;whiteSpace=wrap;html=1;aspect=fixed;fillColor=#0000FF;fontColor=#FFFFFF;" parent="1" vertex="1">
          <mxGeometry x="120" y="604.5" width="40" height="40" as="geometry" />
        </mxCell>
        <mxCell id="-KteRIamTAUfvcSRPBfz-78" value="10" style="ellipse;whiteSpace=wrap;html=1;aspect=fixed;fillColor=#0000FF;fontColor=#FFFFFF;" parent="1" vertex="1">
          <mxGeometry x="273.5" y="780" width="40" height="40" as="geometry" />
        </mxCell>
        <mxCell id="-KteRIamTAUfvcSRPBfz-79" value="11" style="ellipse;whiteSpace=wrap;html=1;aspect=fixed;fontColor=#FFFFFF;fillColor=#0000FF;" parent="1" vertex="1">
          <mxGeometry x="280" y="870" width="40" height="40" as="geometry" />
        </mxCell>
        <mxCell id="-KteRIamTAUfvcSRPBfz-80" value="13" style="ellipse;whiteSpace=wrap;html=1;aspect=fixed;fontColor=#FFFFFF;fillColor=#0000FF;" parent="1" vertex="1">
          <mxGeometry x="120" y="880" width="40" height="40" as="geometry" />
        </mxCell>
        <mxCell id="-KteRIamTAUfvcSRPBfz-81" value="12" style="ellipse;whiteSpace=wrap;html=1;aspect=fixed;fillColor=#0000FF;fontColor=#FFFFFF;" parent="1" vertex="1">
          <mxGeometry x="690" y="880" width="40" height="40" as="geometry" />
        </mxCell>
        <mxCell id="-KteRIamTAUfvcSRPBfz-82" value="14" style="ellipse;whiteSpace=wrap;html=1;aspect=fixed;fillColor=#0000FF;fontColor=#FFFFFF;" parent="1" vertex="1">
          <mxGeometry x="525" y="1000" width="40" height="40" as="geometry" />
        </mxCell>
        <mxCell id="-KteRIamTAUfvcSRPBfz-84" value="" style="edgeStyle=orthogonalEdgeStyle;rounded=0;orthogonalLoop=1;jettySize=auto;html=1;fontColor=#FFFFFF;" parent="1" source="-KteRIamTAUfvcSRPBfz-83" target="-KteRIamTAUfvcSRPBfz-53" edge="1">
          <mxGeometry relative="1" as="geometry" />
        </mxCell>
        <mxCell id="-KteRIamTAUfvcSRPBfz-83" value="MOPS" style="points=[[0,0,0],[0.25,0,0],[0.5,0,0],[0.75,0,0],[1,0,0],[0,1,0],[0.25,1,0],[0.5,1,0],[0.75,1,0],[1,1,0],[0,0.25,0],[0,0.5,0],[0,0.75,0],[1,0.25,0],[1,0.5,0],[1,0.75,0]];outlineConnect=0;fontColor=#232F3E;gradientColor=#F78E04;gradientDirection=north;fillColor=#D05C17;strokeColor=#ffffff;dashed=0;verticalLabelPosition=bottom;verticalAlign=top;align=center;html=1;fontSize=12;fontStyle=0;aspect=fixed;shape=mxgraph.aws4.resourceIcon;resIcon=mxgraph.aws4.ecs;" parent="1" vertex="1">
          <mxGeometry x="322" y="761" width="78" height="78" as="geometry" />
        </mxCell>
        <mxCell id="uHm4N4kydsBdxmOtiXhD-1" value="" style="endArrow=none;html=1;fontColor=#FFFFFF;" edge="1" parent="1">
          <mxGeometry width="50" height="50" relative="1" as="geometry">
            <mxPoint y="750" as="sourcePoint" />
            <mxPoint x="840" y="750" as="targetPoint" />
          </mxGeometry>
        </mxCell>
      </root>
    </mxGraphModel>
  </diagram>
</mxfile>
